<?xml version="1.0"?>
<svg xmlns="http://www.w3.org/2000/svg" xmlns:xlink="http://www.w3.org/1999/xlink" xmlns:svgjs="http://svgjs.com/svgjs" version="1.1" width="512" height="512" x="0" y="0" viewBox="0 0 512 512" style="enable-background:new 0 0 512 512" xml:space="preserve" class=""><g>
<path xmlns="http://www.w3.org/2000/svg" style="" d="M315.733,0H196.267c-11.733,0-21.333,9.6-21.333,21.333v469.333c0,11.733,9.6,21.333,21.333,21.333  h119.467c11.733,0,21.333-9.6,21.333-21.333V21.333C337.067,9.6,327.467,0,315.733,0z" fill="#851ce0" data-original="#ff7058" class=""/>
<path xmlns="http://www.w3.org/2000/svg" style="" d="M140.8,0H21.333C9.6,0,0,9.6,0,21.333v469.333C0,502.4,9.6,512,21.333,512H140.8  c11.733,0,21.333-9.6,21.333-21.333V21.333C162.133,9.6,152.533,0,140.8,0z" fill="#383033" data-original="#84dbff" class=""/>
<rect xmlns="http://www.w3.org/2000/svg" x="21.333" y="21.333" style="" width="119.467" height="186.667" fill="#f2f2f2" data-original="#f2f2f2" class=""/>
<rect xmlns="http://www.w3.org/2000/svg" x="196.267" y="21.333" style="" width="119.467" height="186.667" fill="#f1543f" data-original="#f1543f" class=""/>
<path xmlns="http://www.w3.org/2000/svg" style="" d="M490.667,0H371.2c-11.733,0-21.333,9.6-21.333,21.333v469.333c0,11.733,9.6,21.333,21.333,21.333  h119.467C502.4,512,512,502.4,512,490.667V21.333C512,9.6,502.4,0,490.667,0z" fill="#c9dec8" data-original="#ffd15c" class=""/>
<rect xmlns="http://www.w3.org/2000/svg" x="371.2" y="21.333" style="" width="119.467" height="186.667" fill="#f8b64c" data-original="#f8b64c"/>
<g xmlns="http://www.w3.org/2000/svg">
	<rect x="33.067" y="46.933" style="" width="96" height="26.667" fill="#cdd6e0" data-original="#cdd6e0" class=""/>
	<rect x="33.067" y="101.333" style="" width="96" height="26.667" fill="#cdd6e0" data-original="#cdd6e0" class=""/>
	<rect x="33.067" y="155.733" style="" width="67.2" height="26.667" fill="#cdd6e0" data-original="#cdd6e0" class=""/>
</g>
<g xmlns="http://www.w3.org/2000/svg">
	<rect x="208" y="46.933" style="" width="96" height="26.667" fill="#f2f2f2" data-original="#f2f2f2" class=""/>
	<rect x="208" y="101.333" style="" width="96" height="26.667" fill="#f2f2f2" data-original="#f2f2f2" class=""/>
	<rect x="208" y="155.733" style="" width="67.2" height="26.667" fill="#f2f2f2" data-original="#f2f2f2" class=""/>
	<rect x="382.933" y="46.933" style="" width="96" height="26.667" fill="#f2f2f2" data-original="#f2f2f2" class=""/>
	<rect x="382.933" y="101.333" style="" width="96" height="26.667" fill="#f2f2f2" data-original="#f2f2f2" class=""/>
	<rect x="382.933" y="155.733" style="" width="67.2" height="26.667" fill="#f2f2f2" data-original="#f2f2f2" class=""/>
	<circle style="" cx="81.067" cy="413.867" r="48" fill="#f2f2f2" data-original="#f2f2f2" class=""/>
</g>
<circle xmlns="http://www.w3.org/2000/svg" style="" cx="81.067" cy="413.867" r="36.267" fill="#b768e6" data-original="#40596b" class=""/>
<circle xmlns="http://www.w3.org/2000/svg" style="" cx="256" cy="413.867" r="48" fill="#f2f2f2" data-original="#f2f2f2" class=""/>
<circle xmlns="http://www.w3.org/2000/svg" style="" cx="256" cy="413.867" r="36.267" fill="#b768e6" data-original="#40596b" class=""/>
<circle xmlns="http://www.w3.org/2000/svg" style="" cx="430.933" cy="413.867" r="48" fill="#f2f2f2" data-original="#f2f2f2" class=""/>
<circle xmlns="http://www.w3.org/2000/svg" style="" cx="430.933" cy="413.867" r="36.267" fill="#b768e6" data-original="#40596b" class=""/>
<g xmlns="http://www.w3.org/2000/svg">
</g>
<g xmlns="http://www.w3.org/2000/svg">
</g>
<g xmlns="http://www.w3.org/2000/svg">
</g>
<g xmlns="http://www.w3.org/2000/svg">
</g>
<g xmlns="http://www.w3.org/2000/svg">
</g>
<g xmlns="http://www.w3.org/2000/svg">
</g>
<g xmlns="http://www.w3.org/2000/svg">
</g>
<g xmlns="http://www.w3.org/2000/svg">
</g>
<g xmlns="http://www.w3.org/2000/svg">
</g>
<g xmlns="http://www.w3.org/2000/svg">
</g>
<g xmlns="http://www.w3.org/2000/svg">
</g>
<g xmlns="http://www.w3.org/2000/svg">
</g>
<g xmlns="http://www.w3.org/2000/svg">
</g>
<g xmlns="http://www.w3.org/2000/svg">
</g>
<g xmlns="http://www.w3.org/2000/svg">
</g>
</g></svg>
